<svg id="Layer_1" enable-background="new 0 0 512 512" height="512" viewBox="0 0 512 512" width="512" xmlns="http://www.w3.org/2000/svg"><path d="m243.414 229.529h9.391c4.143 0 7.5-3.357 7.5-7.5s-3.357-7.5-7.5-7.5h-6.27v-14.665c0-4.143-3.357-7.5-7.5-7.5s-7.5 3.357-7.5 7.5v17.844c0 6.519 5.328 11.821 11.879 11.821z"/><path d="m204.021 186.439c-4.143 0-7.5 3.357-7.5 7.5v15.629c0 4.143 3.357 7.5 7.5 7.5s7.5-3.357 7.5-7.5v-15.629c0-4.142-3.357-7.5-7.5-7.5z"/><path d="m287.307 217.068c4.143 0 7.5-3.357 7.5-7.5v-15.629c0-4.143-3.357-7.5-7.5-7.5s-7.5 3.357-7.5 7.5v15.629c0 4.143 3.357 7.5 7.5 7.5z"/><path d="m269.885 260.003c2.93-2.93 2.93-7.678 0-10.607-2.93-2.928-7.678-2.928-10.607 0-3.602 3.603-8.406 5.585-13.535 5.585-.014 0-.029 0-.045 0-5.156-.012-10.004-2.025-13.648-5.67-2.93-2.928-7.678-2.928-10.607 0-2.928 2.93-2.928 7.678 0 10.607 6.705 6.705 15.508 10.059 24.301 10.059 8.748 0 17.49-3.324 24.141-9.974z"/><path d="m144.164 115v-20.5h20.5c4.143 0 7.5-3.357 7.5-7.5s-3.357-7.5-7.5-7.5h-28c-4.143 0-7.5 3.357-7.5 7.5v28c0 4.143 3.357 7.5 7.5 7.5s7.5-3.357 7.5-7.5z"/><path d="m354.664 122.5c4.143 0 7.5-3.357 7.5-7.5v-28c0-4.143-3.357-7.5-7.5-7.5h-28c-4.143 0-7.5 3.357-7.5 7.5s3.357 7.5 7.5 7.5h20.5v20.5c0 4.143 3.358 7.5 7.5 7.5z"/><path d="m136.664 267.5c-4.143 0-7.5 3.357-7.5 7.5v28c0 4.143 3.357 7.5 7.5 7.5h28c4.143 0 7.5-3.357 7.5-7.5s-3.357-7.5-7.5-7.5h-20.5v-20.5c0-4.143-3.357-7.5-7.5-7.5z"/><circle cx="153" cy="32.5" r="7.5"/><circle cx="176.5" cy="32.5" r="7.5"/><path d="m211 25c-4.143 0-7.5 3.357-7.5 7.5s3.357 7.5 7.5 7.5h72c4.143 0 7.5-3.357 7.5-7.5s-3.357-7.5-7.5-7.5z"/><path d="m245.664 468.837c21.641 0 39.246-17.606 39.246-39.247s-17.605-39.247-39.246-39.247c-21.643 0-39.248 17.606-39.248 39.247 0 21.64 17.605 39.247 39.248 39.247zm0-63.494c13.369 0 24.246 10.877 24.246 24.247s-10.877 24.247-24.246 24.247c-13.371 0-24.248-10.877-24.248-24.247s10.877-24.247 24.248-24.247z"/><path d="m335.705 453.09c5.789 0 10.5-4.71 10.5-10.5v-26c0-5.79-4.711-10.5-10.5-10.5h-26c-5.791 0-10.5 4.71-10.5 10.5v26c0 5.79 4.709 10.5 10.5 10.5zm-21.5-32h17v17h-17z"/><path d="m181.705 406.09h-26c-5.791 0-10.5 4.71-10.5 10.5v26c0 5.79 4.709 10.5 10.5 10.5h26c5.789 0 10.5-4.71 10.5-10.5v-26c0-5.79-4.711-10.5-10.5-10.5zm-4.5 32h-17v-17h17z"/><path d="m486.793 433.799-37.188-37.135c1.801-9.07 2.131-18.343.979-27.596-.512-4.111-4.268-7.025-8.369-6.516-4.109.512-7.027 4.259-6.516 8.369 1.029 8.259.631 16.53-1.182 24.594-.834 3.728.283 7.564 2.982 10.258l38.445 38.392-48.273 48.209-38.971-38.918v-107.956c0-1.376-.379-2.726-1.096-3.901l-23.572-38.707c-7.477-12.336-9.611-22.663-6.346-30.694 3.029-7.453 10.264-11.915 15.369-14.241 0 0 37.861 66.436 38.109 66.745 0 0 9.916 10.354 13.744 16.34 2.232 3.491 6.873 4.507 10.359 2.277 3.49-2.232 4.51-6.87 2.277-10.359-3.971-6.208-8.756-11.906-14.172-16.919l-34.671-61.041v-85.003c0-4.143-3.357-7.5-7.5-7.5s-7.5 3.357-7.5 7.5v72.304c-1.438.049-2.848.332-4.195.868-7.223 2.875-20.168 9.735-25.715 23.38-3.525 8.671-3.463 18.364.158 28.951h-17.285c-4.143 0-7.5 3.357-7.5 7.5s3.357 7.5 7.5 7.5h24.445c.035.06.068.119.103.18l21.531 35.353h-16.943c-3.422-14.282-16.297-24.942-31.6-24.942h-46.065v-13.979c26.525-8.502 46.711-31.034 51.602-58.717h4.258c12.014 0 21.787-9.635 21.787-21.479v-16.919c0-11.842-9.773-21.476-21.787-21.476h-3.098v-39.473c0-41.657-31.066-65.549-85.234-65.549-54.17 0-85.238 23.892-85.238 65.549v39.473h-3.094c-12.014 0-21.787 9.634-21.787 21.476v16.919c0 11.844 9.773 21.479 21.787 21.479h4.254c4.893 27.682 25.078 50.215 51.604 58.717v13.979h-46.063c-15.303 0-28.18 10.66-31.6 24.942h-11.078c-1.48-3.926-3.834-7.428-6.822-10.268v-307.566c0-7.278 5.896-13.199 13.143-13.199h229.787c7.248 0 13.145 5.921 13.145 13.199v105.804c0 4.143 3.357 7.5 7.5 7.5s7.5-3.357 7.5-7.5v-105.804c0-15.549-12.625-28.199-28.144-28.199h-229.787c-15.518 0-28.143 12.65-28.143 28.199v207.819h-54.215c-15.164 0-27.5 12.337-27.5 27.5v6.086c0 13.903 10.373 25.423 23.787 27.242-2.008 3.815-3.15 8.155-3.15 12.758v6.087c0 10.021 5.389 18.804 13.42 23.61-3.41 4.581-5.432 10.253-5.432 16.39v6.087c0 9.743 5.098 18.313 12.762 23.199-3.602 4.65-5.752 10.478-5.752 16.801v6.086c0 15.163 12.336 27.5 27.5 27.5h18.58v48.435c0 15.55 12.625 28.201 28.143 28.201h46.23c4.143 0 7.5-3.357 7.5-7.5s-3.357-7.5-7.5-7.5h-46.23c-7.246 0-13.143-5.922-13.143-13.201v-51.151c9.215-4.447 15.586-13.886 15.586-24.783v-6.086c0-9.743-5.098-18.311-12.76-23.198 3.6-4.65 5.752-10.479 5.752-16.802v-.746h247.496v122.767c0 7.279-5.897 13.201-13.145 13.201h-147.556c-4.143 0-7.5 3.357-7.5 7.5s3.357 7.5 7.5 7.5h147.557c15.52 0 28.145-12.651 28.145-28.201v-9.145l28.609 28.571c2.766 2.757 6.445 4.274 10.361 4.274 3.918 0 7.598-1.519 10.367-4.28l48.754-48.688c2.77-2.766 4.295-6.447 4.295-10.366 0-3.92-1.525-7.601-4.295-10.367zm-155.895-230.278h3.098c3.742 0 6.787 2.905 6.787 6.476v16.919c0 3.572-3.045 6.479-6.787 6.479h-3.098zm-170.472 29.874h-3.094c-3.742 0-6.787-2.906-6.787-6.479v-16.919c0-3.57 3.045-6.476 6.787-6.476h3.094zm-112.014 48.709c-6.893 0-12.5-5.607-12.5-12.5v-6.086c0-6.893 5.607-12.5 12.5-12.5h54.215v31.086zm8.137 33.587v-6.087c0-6.893 5.607-12.5 12.5-12.5h33.578v31.087h-33.578c-6.893 0-12.5-5.607-12.5-12.5zm7.988 46.087v-6.087c0-6.893 5.607-12.5 12.5-12.5h21.668c6.893 0 12.5 5.607 12.5 12.5v6.087c0 6.893-5.607 12.5-12.5 12.5h-21.668c-6.892 0-12.5-5.607-12.5-12.5zm53.676 46.086c0 6.893-5.607 12.5-12.5 12.5h-21.666c-6.893 0-12.5-5.607-12.5-12.5v-6.086c0-6.893 5.607-12.5 12.5-12.5h21.666c6.893 0 12.5 5.607 12.5 12.5zm76.596-297.422c11.91-7.813 29.496-11.942 50.855-11.942s38.943 4.13 50.854 11.942c12.941 8.489 19.277 20.997 19.373 38.216-14.217-15.475-38.164-23.859-70.227-23.859s-56.012 8.385-70.229 23.859c.096-17.218 6.43-29.726 19.374-38.216zm-19.383 124.935v-45.028c0-17.424 6.34-30.053 19.383-38.607 11.91-7.813 29.496-11.942 50.855-11.942s38.943 4.13 50.854 11.942c13.041 8.555 19.381 21.184 19.381 38.607v45.028c0 33.302-27.443 60.395-61.178 60.395h-18.113c-33.737 0-61.182-27.093-61.182-60.395zm-24.055 110.655c2.83-5.87 8.822-9.942 15.756-9.942h46.973c.863 3.583 2.326 6.929 4.262 9.942zm111.766-17.588c0 9.698-7.838 17.588-17.475 17.588-9.635 0-17.473-7.89-17.473-17.588v-18.143c2.766.303 5.572.471 8.418.471h18.113c2.846 0 5.65-.168 8.416-.471v18.143zm9.828 17.588c1.936-3.014 3.4-6.359 4.262-9.942h46.975c6.934 0 12.926 4.072 15.756 9.942z"/></svg>